<svg version="1.1" id="bloom-logo" xmlns="http://www.w3.org/2000/svg" xmlns:xlink="http://www.w3.org/1999/xlink" x="0px" y="0px"
	 width="1039px" height="1039px" viewBox="0 0 1039 1039" enable-background="new 0 0 1039 1039" xml:space="preserve">
<g>
	<path d="M944.654,741.156c-38.806,0-68.187,30.401-68.187,69.263c0,38.774,29.381,69.252,68.187,69.252
		c37.751,0,69.219-30.478,69.219-69.252C1013.873,772.589,982.405,741.156,944.654,741.156z"/>
	<path d="M721.351,489.481c66.1-34.587,99.653-82.92,99.653-147.91c0-59.781-28.348-113.245-76.557-145.778
		c-36.722-25.106-78.69-30.402-135.321-30.402H320.69c-22.04,0-32.5,7.34-32.5,24.084v33.643c0,26.138,9.45,29.292,32.5,31.423
		c31.467,3.077,44.082,8.373,44.082,40.917V744.32c0,32.532-12.615,38.862-44.082,41.926c-23.05,2.143-32.5,4.275-32.5,30.401
		v33.654c0,16.733,10.46,24.073,32.5,24.073h279.009c75.481,0,131.078-5.285,181.422-41.928
		c49.334-35.697,77.637-91.291,77.637-160.456C858.758,579.666,814.699,523.047,721.351,489.481z M566.124,782.061H481.17V577.017
		v-32.961V457.97v-78.657V252.411h95.457c80.756,0,122.684,34.587,122.684,101.72c0,52.75-28.787,87.359-83.042,99.226
		c-37.928,11.548-86.469,13.327-99.962,24.853c-10.305,8.801-10.328,36.291,2.219,51.068c9.691,11.361,39.469,12.603,85.438,14.822
		c2.923,0.143,5.362,0.429,7.514,0.803c80.185,6.196,122.464,50.068,122.464,121.792
		C733.941,748.505,680.435,782.061,566.124,782.061z"/>
	<path d="M329.196,475.902c-15.8-15.712-86.515-6.317-124.464-44.235c-25.335-25.446-4.285-86.59-34.895-117.167
		c-36.895-36.896-89.723-36.896-125.584-1.022c-37.951,37.917-33.774,97.017,16.92,147.734
		c47.464,47.486,103.455,63.286,174.126,72.769c46.366,6.318,77.064,3.24,87.61-7.352
		C336.622,512.885,338.753,485.472,329.196,475.902z"/>
</g>
</svg>
