<svg version="1.1" id="hv-logo" xmlns="http://www.w3.org/2000/svg" xmlns:xlink="http://www.w3.org/1999/xlink" x="0px" y="0px"
	 width="1039px" height="1039px" viewBox="0 0 1039 1039" enable-background="new 0 0 1039 1039" xml:space="preserve">
<path d="M769.419,503.232c-4.809,0.307-9.821,0.461-15.142,0.461c-38.725,0-61.182-8.236-81.746-20.82V218.86h96.939
	L769.419,503.232z M420.898,413.455c84.406,10.129,135.101,49.774,176.076,81.797c10.589,8.287,19.439,15.193,28.596,21.69
	c3.428,2.507,6.6,4.706,9.72,6.752c3.785,2.507,6.957,4.502,9.924,6.292c32.944,19.798,65.53,28.188,109.063,28.188
	c5.218,0,10.23-0.103,15.142-0.358v100.622c-5.013,0.205-10.129,0.308-15.142,0.308c-34.428,0-65.325-4.246-94.586-13.045
	c-2.968-0.87-5.832-1.79-8.697-2.763c-2.915-0.972-5.831-1.995-8.645-3.069c-45.324-16.881-78.268-42.663-107.375-65.428
	c-34.837-27.214-65.121-50.899-114.076-59.442V413.455z M672.531,705.296c25.73,5.371,52.588,7.98,81.746,7.98
	c5.064,0,10.18-0.103,15.193-0.256V820.14h-96.939V705.296z M269.479,218.86h96.888v601.33h-96.888V218.86z M618,164.329v278.233
	c-45.528-35.144-102.925-74.533-197.102-83.997V164.329h-205.9v710.342h205.9V570.553c29.721,7.162,49.518,22.662,80.518,46.91
	c31.358,24.503,66.758,52.127,116.584,71.668v185.54h206.002V164.329H618z"/>
<g>
	<path d="M1998.621,1211.602c-3.449,0-6.061,2.702-6.061,6.156c0,3.446,2.611,6.155,6.061,6.155c3.355,0,6.152-2.709,6.152-6.155
		C2004.773,1214.396,2001.977,1211.602,1998.621,1211.602z"/>
	<path d="M1978.773,1189.232c5.875-3.074,8.857-7.37,8.857-13.146c0-5.313-2.52-10.065-6.805-12.957
		c-3.264-2.231-6.994-2.702-12.027-2.702h-25.637c-1.959,0-2.889,0.652-2.889,2.141v2.99c0,2.323,0.84,2.604,2.889,2.793
		c2.797,0.273,3.918,0.744,3.918,3.637v39.896c0,2.892-1.121,3.454-3.918,3.727c-2.049,0.19-2.889,0.38-2.889,2.702v2.991
		c0,1.487,0.93,2.14,2.889,2.14h24.799c6.709,0,11.65-0.47,16.125-3.727c4.385-3.173,6.9-8.114,6.9-14.262
		C1990.986,1197.248,1987.07,1192.216,1978.773,1189.232z M1964.977,1215.237h-7.551v-18.225v-2.93v-7.651v-6.991v-11.279h8.484
		c7.178,0,10.904,3.074,10.904,9.041c0,4.688-2.559,7.765-7.381,8.819c-3.371,1.026-7.686,1.185-8.885,2.209
		c-0.916,0.782-0.918,3.226,0.197,4.539c0.861,1.01,3.508,1.12,7.594,1.317c0.26,0.013,0.477,0.038,0.668,0.071
		c7.127,0.551,10.885,4.45,10.885,10.825C1979.893,1212.255,1975.137,1215.237,1964.977,1215.237z"/>
	<path d="M1943.918,1188.025c-1.404-1.396-7.689-0.562-11.063-3.932c-2.252-2.262-0.381-7.696-3.102-10.414
		c-3.279-3.279-7.975-3.279-11.162-0.091c-3.373,3.37-3.002,8.623,1.504,13.131c4.219,4.221,9.195,5.625,15.477,6.468
		c4.121,0.562,6.85,0.288,7.787-0.653C1944.578,1191.313,1944.768,1188.876,1943.918,1188.025z"/>
</g>
</svg>
